<?xml version="1.0" encoding="UTF-8" standalone="no"?>
<!-- Created with Inkscape (http://www.inkscape.org/) -->

<svg
   width="1000"
   height="1000"
   viewBox="0 0 264.58333 264.58334"
   version="1.1"
   id="svg1492"
   inkscape:version="1.2 (dc2aedaf03, 2022-05-15)"
   sodipodi:docname="fairy_fountain.svg"
   xmlns:inkscape="http://www.inkscape.org/namespaces/inkscape"
   xmlns:sodipodi="http://sodipodi.sourceforge.net/DTD/sodipodi-0.dtd"
   xmlns:xlink="http://www.w3.org/1999/xlink"
   xmlns="http://www.w3.org/2000/svg"
   xmlns:svg="http://www.w3.org/2000/svg"
   xmlns:rdf="http://www.w3.org/1999/02/22-rdf-syntax-ns#"
   xmlns:cc="http://creativecommons.org/ns#"
   xmlns:dc="http://purl.org/dc/elements/1.1/">
  <defs
     id="defs1486">
    <linearGradient
       inkscape:collect="always"
       id="linearGradient1857">
      <stop
         style="stop-color:#fefefe;stop-opacity:1;"
         offset="0"
         id="stop1853" />
      <stop
         style="stop-color:#e2fefd;stop-opacity:1;"
         offset="0.69124424"
         id="stop1868" />
      <stop
         style="stop-color:#b0fefd;stop-opacity:1;"
         offset="1"
         id="stop1855" />
    </linearGradient>
    <linearGradient
       inkscape:collect="always"
       id="linearGradient1802">
      <stop
         style="stop-color:#b0fefd;stop-opacity:0.39278558;"
         offset="0"
         id="stop1798" />
      <stop
         style="stop-color:#b0fefd;stop-opacity:0;"
         offset="1"
         id="stop1800" />
    </linearGradient>
    <radialGradient
       inkscape:collect="always"
       xlink:href="#linearGradient1060"
       id="radialGradient1062"
       cx="11.692875"
       cy="15.336735"
       fx="11.692875"
       fy="15.336735"
       r="22.833893"
       gradientUnits="userSpaceOnUse"
       gradientTransform="matrix(1.1141014,0.15019196,-0.150253,1.1145543,0.97021688,-3.5130645)" />
    <linearGradient
       inkscape:collect="always"
       id="linearGradient1060">
      <stop
         style="stop-color:#ffffff;stop-opacity:1"
         offset="0"
         id="stop1056" />
      <stop
         style="stop-color:#fe28c2;stop-opacity:1;"
         offset="1"
         id="stop1058" />
    </linearGradient>
    <filter
       inkscape:collect="always"
       style="color-interpolation-filters:sRGB"
       id="filter1448"
       x="-0.1116"
       width="1.2232"
       y="-0.1116"
       height="1.2232">
      <feGaussianBlur
         inkscape:collect="always"
         stdDeviation="1.2682465"
         id="feGaussianBlur1450" />
    </filter>
    <radialGradient
       inkscape:collect="always"
       xlink:href="#linearGradient1060"
       id="radialGradient1676"
       gradientUnits="userSpaceOnUse"
       gradientTransform="matrix(1.1141014,0.15019196,-0.150253,1.1145543,0.97021688,-3.5130645)"
       cx="11.692875"
       cy="15.336735"
       fx="11.692875"
       fy="15.336735"
       r="22.833893" />
    <radialGradient
       inkscape:collect="always"
       xlink:href="#linearGradient1060"
       id="radialGradient1684"
       gradientUnits="userSpaceOnUse"
       gradientTransform="matrix(1.1141014,0.15019196,-0.150253,1.1145543,0.97021688,-3.5130645)"
       cx="11.692875"
       cy="15.336735"
       fx="11.692875"
       fy="15.336735"
       r="22.833893" />
    <linearGradient
       inkscape:collect="always"
       xlink:href="#linearGradient1802"
       id="linearGradient1804"
       x1="132.29167"
       y1="265.74295"
       x2="132.29167"
       y2="69.805534"
       gradientUnits="userSpaceOnUse" />
    <radialGradient
       inkscape:collect="always"
       xlink:href="#linearGradient1857"
       id="radialGradient1859"
       cx="132.29167"
       cy="265.74295"
       fx="132.29167"
       fy="265.74295"
       r="110.64958"
       gradientTransform="matrix(0.79227052,0,0,0.13204509,27.48088,230.6529)"
       gradientUnits="userSpaceOnUse" />
  </defs>
  <sodipodi:namedview
     id="base"
     pagecolor="#ffffff"
     bordercolor="#666666"
     borderopacity="1.0"
     inkscape:pageopacity="0.0"
     inkscape:pageshadow="2"
     inkscape:zoom="0.030935921"
     inkscape:cx="-10489.424"
     inkscape:cy="1422.2948"
     inkscape:document-units="px"
     inkscape:current-layer="layer1"
     showgrid="false"
     units="px"
     inkscape:window-width="1920"
     inkscape:window-height="1017"
     inkscape:window-x="-8"
     inkscape:window-y="-8"
     inkscape:window-maximized="1"
     inkscape:showpageshadow="0"
     inkscape:pagecheckerboard="1"
     inkscape:deskcolor="#d1d1d1" />
  <metadata
     id="metadata1489">
    <rdf:RDF>
      <cc:Work
         rdf:about="">
        <dc:format>image/svg+xml</dc:format>
        <dc:type
           rdf:resource="http://purl.org/dc/dcmitype/StillImage" />
      </cc:Work>
    </rdf:RDF>
  </metadata>
  <g
     inkscape:label="Ebene 1"
     inkscape:groupmode="layer"
     id="layer1"
     transform="translate(-4.2529297e-6,-31.763637)">
    <g
       id="g1466"
       inkscape:label="fairy"
       transform="matrix(2.9471992,0.78969966,-0.78969966,2.9471992,-888.02005,-521.31414)"
       style="stroke-width:2.73723">
      <path
         style="opacity:1;fill:#fed9f7;fill-opacity:1;fill-rule:nonzero;stroke:none;stroke-width:8.25171;stroke-linecap:round;stroke-linejoin:round;stroke-miterlimit:4;stroke-dasharray:none;stroke-opacity:1;paint-order:stroke markers fill"
         d="m 373.70049,100.73634 a 3.6711535,8.2826018 56.340966 0 0 -9.09921,4.40762 3.6711535,8.2826018 56.340966 0 0 -1.73942,6.28356 4.8178057,3.7230996 23.585432 0 0 -0.65733,3.86216 4.8178057,3.7230996 23.585432 0 0 6.13555,2.95585 4.8178057,3.7230996 23.585432 0 0 2.40554,-4.68851 4.8178057,3.7230996 23.585432 0 0 -2.83342,-2.56333 3.6711535,8.2826018 56.340966 0 0 5.64049,-3.63559 3.6711535,8.2826018 56.340966 0 0 1.14877,-6.50947 3.6711535,8.2826018 56.340966 0 0 -1.00097,-0.11229 z m -25.17058,0.34454 a 8.2826018,3.6711535 33.659034 0 0 -1.00097,0.11228 8.2826018,3.6711535 33.659034 0 0 1.14877,6.50947 8.2826018,3.6711535 33.659034 0 0 5.64102,3.63559 3.7230996,4.8178057 66.414568 0 0 -2.83395,2.56333 3.7230996,4.8178057 66.414568 0 0 2.40553,4.68851 3.7230996,4.8178057 66.414568 0 0 6.13556,-2.95585 3.7230996,4.8178057 66.414568 0 0 -0.65683,-3.86216 8.2826018,3.6711535 33.659034 0 0 -1.73992,-6.28356 8.2826018,3.6711535 33.659034 0 0 -9.09921,-4.40761 z"
         id="path1452"
         inkscape:connector-curvature="0"
         inkscape:label="wings" />
      <circle
         inkscape:transform-center-y="14.174108"
         inkscape:transform-center-x="-7.9375005"
         r="13.637059"
         style="opacity:1;fill:url(#radialGradient1062);fill-opacity:1;fill-rule:nonzero;stroke:none;stroke-width:30.1096;stroke-linecap:round;stroke-linejoin:round;stroke-miterlimit:4;stroke-dasharray:none;stroke-opacity:1;paint-order:stroke markers fill;filter:url(#filter1448)"
         id="circle1814-4"
         cx="11.692875"
         cy="15.336735"
         transform="matrix(0.423602,-0.05710576,0.05710576,0.423602,355.28626,106.41266)"
         inkscape:label="body" />
    </g>
    <g
       id="g1674"
       inkscape:label="fairy"
       transform="matrix(2.1574996,2.1574995,-2.1574995,2.1574996,-366.6796,-895.56485)"
       style="stroke-width:2.73723">
      <path
         style="opacity:1;fill:#fed9f7;fill-opacity:1;fill-rule:nonzero;stroke:none;stroke-width:8.25171;stroke-linecap:round;stroke-linejoin:round;stroke-miterlimit:4;stroke-dasharray:none;stroke-opacity:1;paint-order:stroke markers fill"
         d="m 373.70049,100.73634 a 3.6711535,8.2826018 56.340966 0 0 -9.09921,4.40762 3.6711535,8.2826018 56.340966 0 0 -1.73942,6.28356 4.8178057,3.7230996 23.585432 0 0 -0.65733,3.86216 4.8178057,3.7230996 23.585432 0 0 6.13555,2.95585 4.8178057,3.7230996 23.585432 0 0 2.40554,-4.68851 4.8178057,3.7230996 23.585432 0 0 -2.83342,-2.56333 3.6711535,8.2826018 56.340966 0 0 5.64049,-3.63559 3.6711535,8.2826018 56.340966 0 0 1.14877,-6.50947 3.6711535,8.2826018 56.340966 0 0 -1.00097,-0.11229 z m -25.17058,0.34454 a 8.2826018,3.6711535 33.659034 0 0 -1.00097,0.11228 8.2826018,3.6711535 33.659034 0 0 1.14877,6.50947 8.2826018,3.6711535 33.659034 0 0 5.64102,3.63559 3.7230996,4.8178057 66.414568 0 0 -2.83395,2.56333 3.7230996,4.8178057 66.414568 0 0 2.40553,4.68851 3.7230996,4.8178057 66.414568 0 0 6.13556,-2.95585 3.7230996,4.8178057 66.414568 0 0 -0.65683,-3.86216 8.2826018,3.6711535 33.659034 0 0 -1.73992,-6.28356 8.2826018,3.6711535 33.659034 0 0 -9.09921,-4.40761 z"
         id="path1670"
         inkscape:connector-curvature="0"
         inkscape:label="wings" />
      <circle
         inkscape:transform-center-y="14.174108"
         inkscape:transform-center-x="-7.9375005"
         r="13.637059"
         style="opacity:1;fill:url(#radialGradient1676);fill-opacity:1;fill-rule:nonzero;stroke:none;stroke-width:30.1096;stroke-linecap:round;stroke-linejoin:round;stroke-miterlimit:4;stroke-dasharray:none;stroke-opacity:1;paint-order:stroke markers fill;filter:url(#filter1448)"
         id="circle1672"
         cx="11.692875"
         cy="15.336735"
         transform="matrix(0.423602,-0.05710576,0.05710576,0.423602,355.28626,106.41266)"
         inkscape:label="body" />
    </g>
    <g
       id="g1682"
       inkscape:label="fairy"
       transform="matrix(2.6423865,-1.5255825,1.5255825,2.6423865,-1015.4693,441.45018)"
       style="stroke-width:2.73723">
      <path
         style="opacity:1;fill:#fed9f7;fill-opacity:1;fill-rule:nonzero;stroke:none;stroke-width:8.25171;stroke-linecap:round;stroke-linejoin:round;stroke-miterlimit:4;stroke-dasharray:none;stroke-opacity:1;paint-order:stroke markers fill"
         d="m 373.70049,100.73634 a 3.6711535,8.2826018 56.340966 0 0 -9.09921,4.40762 3.6711535,8.2826018 56.340966 0 0 -1.73942,6.28356 4.8178057,3.7230996 23.585432 0 0 -0.65733,3.86216 4.8178057,3.7230996 23.585432 0 0 6.13555,2.95585 4.8178057,3.7230996 23.585432 0 0 2.40554,-4.68851 4.8178057,3.7230996 23.585432 0 0 -2.83342,-2.56333 3.6711535,8.2826018 56.340966 0 0 5.64049,-3.63559 3.6711535,8.2826018 56.340966 0 0 1.14877,-6.50947 3.6711535,8.2826018 56.340966 0 0 -1.00097,-0.11229 z m -25.17058,0.34454 a 8.2826018,3.6711535 33.659034 0 0 -1.00097,0.11228 8.2826018,3.6711535 33.659034 0 0 1.14877,6.50947 8.2826018,3.6711535 33.659034 0 0 5.64102,3.63559 3.7230996,4.8178057 66.414568 0 0 -2.83395,2.56333 3.7230996,4.8178057 66.414568 0 0 2.40553,4.68851 3.7230996,4.8178057 66.414568 0 0 6.13556,-2.95585 3.7230996,4.8178057 66.414568 0 0 -0.65683,-3.86216 8.2826018,3.6711535 33.659034 0 0 -1.73992,-6.28356 8.2826018,3.6711535 33.659034 0 0 -9.09921,-4.40761 z"
         id="path1678"
         inkscape:connector-curvature="0"
         inkscape:label="wings" />
      <circle
         inkscape:transform-center-y="14.174108"
         inkscape:transform-center-x="-7.9375005"
         r="13.637059"
         style="opacity:1;fill:url(#radialGradient1684);fill-opacity:1;fill-rule:nonzero;stroke:none;stroke-width:30.1096;stroke-linecap:round;stroke-linejoin:round;stroke-miterlimit:4;stroke-dasharray:none;stroke-opacity:1;paint-order:stroke markers fill;filter:url(#filter1448)"
         id="circle1680"
         cx="11.692875"
         cy="15.336735"
         transform="matrix(0.423602,-0.05710576,0.05710576,0.423602,355.28626,106.41266)"
         inkscape:label="body" />
    </g>
    <g
       id="g1864"
       inkscape:label="magical area">
      <ellipse
         style="opacity:1;fill:#b0fefd;fill-opacity:0;stroke-width:6.985;stroke-linecap:round;stroke-linejoin:round;stroke-miterlimit:6;paint-order:markers stroke fill"
         id="ellipse1740"
         cx="132.29167"
         cy="69.805534"
         rx="132.29167"
         ry="22.048611"
         inkscape:label="top" />
      <path
         style="fill:url(#linearGradient1804);fill-opacity:1;stroke:none;stroke-width:0.264583px;stroke-linecap:butt;stroke-linejoin:miter;stroke-opacity:1"
         d="M 44.627274,265.74295 0,69.805534 H 264.58333 L 219.95607,265.74295 Z"
         id="path1796"
         inkscape:label="shine"
         sodipodi:nodetypes="ccccc" />
      <ellipse
         style="fill:url(#radialGradient1859);fill-opacity:1;stroke-width:6.985;stroke-linecap:round;stroke-linejoin:round;stroke-miterlimit:6;paint-order:markers stroke fill"
         id="path1738"
         cx="132.29167"
         cy="265.74295"
         rx="87.664398"
         ry="14.610734"
         inkscape:label="floor" />
    </g>
  </g>
</svg>
